FFmpeg version SVN-r25716, Copyright (c) 2000-2010 the FFmpeg developers  built on Nov 10 2010 12:23:18 with gcc 4.1.2 20080704 (Red Hat 4.1.2-48)  configuration: --enable-libmp3lame --enable-shared --disable-mmx --arch=x86_64  libavutil     50.33. 0 / 50.33. 0  libavcore      0.12. 1 /  0.12. 1  libavcodec    52.94. 4 / 52.94. 4  libavformat   52.84. 0 / 52.84. 0  libavdevice   52. 2. 2 / 52. 2. 2  libavfilter    1.59. 0 /  1.59. 0  libswscale     0.12. 0 /  0.12. 0Seems stream 0 codec frame rate differs from container frame rate: 5994.00 (5994/1) -> 29.97 (2997/100)Input #0, mov,mp4,m4a,3gp,3g2,mj2, from '/RAID10/data/converted_video_files/12433.mov':  Metadata:    major_brand     : qt      minor_version   : 537199360    compatible_brands: qt    Duration: 00:00:47.74, start: 0.000000, bitrate: 1163 kb/s    Stream #0.0(eng): Video: h264, yuv420p, 960x540, 1159 kb/s, 29.97 fps, 29.97 tbr, 2997 tbn, 5994 tbc[buffer @ 0x1f96f970] w:960 h:540 pixfmt:yuv420pOutput #0, flv, to '/RAID10/data/converted_video_files/12433.flv':  Metadata:    encoder         : Lavf52.84.0    Stream #0.0(eng): Video: flv, yuv420p, 960x540, q=2-31, 600 kb/s, 1k tbn, 24 tbcStream mapping:  Stream #0.0 -> #0.0Press [q] to stop encodingframe=   54 fps=  0 q=2.1 size=     308kB time=2.25 bitrate=1121.2kbits/s dup=0 drop=13    frame=   94 fps= 89 q=2.9 size=     558kB time=3.92 bitrate=1167.9kbits/s dup=0 drop=23    frame=  128 fps= 82 q=9.9 size=     724kB time=5.33 bitrate=1111.7kbits/s dup=0 drop=32    frame=  164 fps= 80 q=6.6 size=     834kB time=6.83 bitrate= 999.8kbits/s dup=0 drop=40    frame=  204 fps= 78 q=9.2 size=     966kB time=8.50 bitrate= 930.7kbits/s dup=0 drop=50    frame=  239 fps= 78 q=11.0 size=    1073kB time=9.96 bitrate= 882.9kbits/s dup=0 drop=59    frame=  282 fps= 79 q=10.3 size=    1239kB time=11.75 bitrate= 864.1kbits/s dup=0 drop=70    frame=  331 fps= 81 q=12.7 size=    1406kB time=13.79 bitrate= 834.9kbits/s dup=0 drop=82    frame=  372 fps= 81 q=25.1 size=    1519kB time=15.50 bitrate= 802.7kbits/s dup=0 drop=92    frame=  409 fps= 80 q=12.5 size=    1640kB time=17.04 bitrate= 788.3kbits/s dup=0 drop=101    frame=  451 fps= 80 q=16.9 size=    1750kB time=18.79 bitrate= 762.9kbits/s dup=0 drop=112    frame=  495 fps= 80 q=19.8 size=    1890kB time=20.62 bitrate= 750.9kbits/s dup=0 drop=123    frame=  524 fps= 79 q=20.1 size=    1962kB time=21.83 bitrate= 736.0kbits/s dup=0 drop=130    frame=  569 fps= 80 q=12.5 size=    2109kB time=23.71 bitrate= 728.6kbits/s dup=0 drop=141    frame=  616 fps= 81 q=13.1 size=    2268kB time=25.67 bitrate= 723.7kbits/s dup=0 drop=153    frame=  654 fps= 80 q=20.6 size=    2366kB time=27.25 bitrate= 711.4kbits/s dup=0 drop=162    frame=  698 fps= 81 q=11.2 size=    2509kB time=29.08 bitrate= 706.8kbits/s dup=0 drop=173    frame=  740 fps= 81 q=7.4 size=    2629kB time=30.83 bitrate= 698.6kbits/s dup=0 drop=184    frame=  781 fps= 81 q=24.0 size=    2775kB time=32.54 bitrate= 698.7kbits/s dup=0 drop=194    frame=  824 fps= 81 q=7.0 size=    2874kB time=34.33 bitrate= 685.7kbits/s dup=0 drop=205    frame=  869 fps= 81 q=13.0 size=    3013kB time=36.21 bitrate= 681.7kbits/s dup=0 drop=216    frame=  901 fps= 81 q=15.0 size=    3110kB time=37.54 bitrate= 678.6kbits/s dup=0 drop=224    frame=  932 fps= 80 q=19.1 size=    3187kB time=38.83 bitrate= 672.4kbits/s dup=0 drop=232    frame=  975 fps= 80 q=14.1 size=    3328kB time=40.62 bitrate= 671.1kbits/s dup=0 drop=242    frame= 1019 fps= 80 q=16.9 size=    3435kB time=42.46 bitrate= 662.7kbits/s dup=0 drop=253    frame= 1050 fps= 79 q=19.9 size=    3531kB time=43.75 bitrate= 661.1kbits/s dup=0 drop=261    frame= 1077 fps= 78 q=13.8 size=    3601kB time=44.88 bitrate= 657.3kbits/s dup=0 drop=268    frame= 1120 fps= 79 q=6.5 size=    3736kB time=46.67 bitrate= 655.8kbits/s dup=0 drop=278    frame= 1146 fps= 79 q=4.3 Lsize=    3812kB time=47.75 bitrate= 653.9kbits/s dup=0 drop=285    video:3794kB audio:0kB global headers:0kB muxing overhead 0.477413%